<?xml version="1.0" encoding="utf-8"?>
<!-- Generator: Adobe Illustrator 26.0.0, SVG Export Plug-In . SVG Version: 6.00 Build 0)  -->
<svg version="1.1" id="Layer_1" xmlns="http://www.w3.org/2000/svg" xmlns:xlink="http://www.w3.org/1999/xlink" x="0px" y="0px"
	 viewBox="0 0 1504 708" style="enable-background:new 0 0 1504 708;" xml:space="preserve">
<style type="text/css">
	.st0{fill:#FFE200;}
</style>
<g>
	<path class="st0" d="M508.1,258.3c-2.8-27.4-3.5-54.8-1.6-82.3c0.9-12.1,1.8-24.2,3.2-36.3c0.3-2.8,2.2-5.9,4.3-7.9
		c9.1-8.9,21.2-11.3,33-14.1c8.8-2.1,17.5-4,26.2-6.2c10.1-2.5,16.5-0.6,20.3,9.1c4,10.3,7.3,21.2,8.6,32.1
		c2.5,20.5,3.4,41.1,5,61.7c1.8,23.2,3.3,46.5,5.5,69.6c0.7,6.8,3.5,13.3,5.5,20.6c7.4-3.9,13.8-7.4,20.3-10.7
		c36.6-18.1,73.1-36.2,109.8-54.2c2.8-1.4,3.9-2.9,3.7-6.1c-1.4-25.9-3-51.8-4-77.8c-0.7-18.3-2.6-36.6,0.7-54.8
		c2.5-14.1,10-22.7,23.9-25.2c18.2-3.3,36.2-1.5,53.8,4.2c18.1,5.9,25.1,20.2,25.7,37.7c0.6,17-0.2,34-0.4,50.9
		c-0.1,8.1,0,16.3,0,25.1c11.9-4.8,23.2-9.4,35-14.2c-2.8-11.9-5.5-23.6-8.2-35.4c-2.4-10.5-5.3-21-7-31.7
		c-3.9-23.7,7.5-40.2,30.9-44.9c7.4-1.5,15.2-2.2,22.7-2.2c9,0,16.4,4.7,20.4,12.5c5.5,11.1,10.3,22.7,14.3,34.4
		c4,11.4,6.7,23.3,10.1,35.6c1.8-0.5,3.5-0.9,5.1-1.4c49.4-15.4,98.7-31,148.1-46.2c3.2-1,5-2.5,6.3-5.4c10.7-23.5,22-46.7,36.7-68
		c1.3-1.9,2.7-3.8,4.1-5.7c14.3-19.8,26.9-23.5,53.9-17.6c10.5,2.3,19.5,7.8,26.3,16.3c6.2,7.8,8.4,16.4,4.8,26.2
		c-3,8.1-5.7,16.3-8.8,25.2c7.2-1.3,13.8-2.5,20.4-3.7c19.5-3.3,38.9-6.5,58.4-9.7c15.4-2.5,30.8-5.6,46.3-7.4
		c25.9-3,51.9-3.6,77.4,3.5c34.9,9.8,54.1,35.2,54.2,71.1c0,27.6-19.9,39.3-42.4,37.6c-8.2-0.7-16.2-2.8-22.8-8
		c-2.8-2.2-5-4.6-6.1-7.7c-2.2-6.2-7.6-8.7-13.1-8.9c-10.1-0.2-20.4-0.8-30.4,0.6c-136.6,19.2-269,54.4-397.1,105.8
		c-136,54.7-264.5,123.6-387.2,203.7c-73.5,48-145.3,98.1-214,152.8c-33.1,26.3-65.3,53.7-98.1,80.5c-8.5,6.9-17,14-26.4,19.4
		c-19.3,11.1-38.9,8.2-55.1-7c-13-12.2-20.6-27.6-26.3-44.2c-8.9-26.3-11.5-53.6-11.4-81.2c0.1-43,13.2-82.9,29.9-121.8
		c28.9-67.6,67.3-129.7,109.1-189.9c5-7.2,10.1-14.3,14.9-22.1c-76.5,17.1-153.2,32.7-227.5,57.6c1.3,5.8,2.9,10.4,3.4,15.1
		c1.4,12.2-4,21.5-15.3,26.4c-14.5,6.2-29.2,4.8-43.3-0.6c-22.6-8.7-37.2-24.4-40.8-49.2c-3.2-21.6-4.4-42.9,1-64.4
		c1.8-7.2,5.3-11.7,12.5-13.8c28.5-8.5,56.7-18.6,85.6-25.6c78.1-19,156.4-37.1,234.8-54.7c25.6-5.8,51.7-9.3,77.6-13.2
		c11.4-1.7,23-1.4,34.3,1.6c10.1,2.7,18.9,7.6,24,16.6c6.9,12.1,13.2,24.6,18.9,37.4c5.8,13.2,2.7,26.4-5.3,37.4
		c-11.8,16.3-24.2,32.3-37.8,47c-23.1,25-47.7,48.5-70.9,73.2c-38.9,41.5-65.6,90.4-84.8,143.6c-4.7,13.2-8.8,26.5-13.1,39.9
		c-0.5,1.4-0.7,2.9-1.2,5.3c8.8-6.3,16.7-12,24.7-17.6c71.2-50.1,144.7-96.6,220.3-139.8"/>
	<path class="st0" d="M1060,265.5c35-12.5,71-24.5,105.8-35.1c0.3-0.1,0.6,0,1.4,0.1c-0.3,1-0.4,1.9-0.8,2.7
		c-38.4,85.1-71,172.5-101.4,260.7c-8.1,23.4-16.1,47-29.1,68.3c-5,8.3-11.6,15.8-18.4,22.7c-7.2,7.3-17,10.1-27.2,11.1
		c-6.5,0.7-11.7-1.9-16.2-6.3c-9.7-9.4-15.2-21.4-20-33.6c-12.5-31.5-20.2-64.4-25.9-97.7c-6.6-38.4-11.8-76.9-17.5-115.4
		c-0.2-1.5,0.8-4.1,2-4.7c26.1-13.6,52.3-27.1,78.5-40.6c0.4-0.2,1-0.2,1.9-0.4c4.3,32.1,8.5,64.1,12.8,96.2
		c0.4,0.1,0.7,0.2,1.1,0.3c0.9-2.1,1.9-4.3,2.8-6.5"/>
	<path class="st0" d="M1356.4,194.8c4.6-0.1,9,1.5,13.4,5.1c11.2,9.2,20.3,20.2,26.6,33.3c1.3,2.7,2.2,5.6,2.8,8.5
		c1.6,7.8-2,13.4-10,13.1c-10.8-0.4-17.4,5.6-23.2,13.2c-13.4,17.3-22.4,37-30.9,56.9c-22.5,52.5-39.9,106.8-57,161.2
		c-7.7,24.6-15.2,49.3-23.2,73.8c-3.8,11.6-9.3,22.5-17.5,31.7c-15.8,17.8-36.8,16-49.4-4.2c-4.9-7.8-6.3-16-5.7-25.2
		c5.9-94.7,34.4-183,75.2-267.8c15.1-31.4,32-61.8,50.9-91c2.4-3.7,4.9-5.2,9.4-5.8C1330,196,1342.3,195,1356.4,194.8z"/>
	<path class="st0" d="M746,439.4c34.7-22,69.5-43.8,104.4-65.6c1-0.6,2-1,3.5-1.8c0.2,1.3,0.5,2.2,0.5,3.1
		c0.8,42.2-1.4,84.2-10.8,125.5c-6.1,26.9-15.1,52.8-31.4,75.6c-21.4,29.8-50.7,44.6-87.2,43.7c-19.3-0.5-36.4-8.5-52.1-19.6
		c-25-17.7-43.8-41.1-61.4-67c24.6-17.7,48.7-35.1,73-52.6c3.9,6.1,7.1,11.9,11.1,17.2c3.2,4.2,6.8,8.3,10.9,11.6
		c7,5.7,14.1,4.4,19.3-3c6.8-9.5,9.3-20.6,11.7-31.6"/>
</g>
</svg>
