<?xml version="1.0" encoding="utf-8"?>
<!-- Generator: Adobe Illustrator 26.0.0, SVG Export Plug-In . SVG Version: 6.00 Build 0)  -->
<svg version="1.1" id="Layer_1" xmlns="http://www.w3.org/2000/svg" xmlns:xlink="http://www.w3.org/1999/xlink" x="0px" y="0px"
	 viewBox="0 0 1504 708" style="enable-background:new 0 0 1504 708;" xml:space="preserve">
<style type="text/css">
	.st0{display:none;}
</style>
<g>
	<path class="st0" d="M-248-774c666.67,0,1333.33,0,2000,0c0,333.33,0,666.67,0,1000c-666.67,0-1333.33,0-2000,0
		C-248-107.33-248-440.67-248-774z M545.18-333.23c-2.01-7.28-4.83-13.83-5.49-20.59c-2.26-23.17-3.76-46.42-5.55-69.64
		c-1.58-20.59-2.49-41.26-5.01-61.73c-1.34-10.91-4.63-21.8-8.61-32.09c-3.75-9.68-10.17-11.66-20.29-9.13
		c-8.72,2.18-17.5,4.13-26.25,6.18c-11.85,2.78-23.93,5.16-33.05,14.1c-2.06,2.02-3.93,5.09-4.26,7.87
		c-1.4,12.05-2.34,24.16-3.19,36.27c-1.95,27.48-1.25,54.96,1.58,82.3c3.23,31.16,9.53,61.78,18.44,91.84
		c0.99,3.34,0.18,5.03-2.82,6.74c-75.6,43.17-149.07,89.7-220.29,139.77c-7.99,5.61-15.89,11.36-24.69,17.65
		c0.58-2.49,0.8-3.95,1.25-5.34c4.34-13.3,8.42-26.69,13.14-39.85c19.11-53.26,45.88-102.14,84.76-143.65
		c23.23-24.8,47.87-48.3,70.93-73.25c13.63-14.75,26.01-30.76,37.83-47.02c8.03-11.05,11.12-24.22,5.29-37.45
		c-5.63-12.77-11.97-25.27-18.86-37.41c-5.16-9.08-13.96-13.98-24.03-16.64c-11.33-3-22.91-3.34-34.28-1.64
		c-25.96,3.89-52.06,7.47-77.64,13.22c-78.39,17.62-156.68,35.71-234.75,54.68c-28.89,7.02-57.04,17.09-85.57,25.6
		c-7.15,2.13-10.65,6.54-12.5,13.79c-5.47,21.47-4.17,42.85-1.02,64.42c3.63,24.83,18.18,40.52,40.82,49.24
		c14.21,5.47,28.87,6.89,43.35,0.65c11.29-4.87,16.7-14.19,15.27-26.4c-0.55-4.72-2.1-9.32-3.45-15.1
		c74.22-24.95,150.98-40.47,227.48-57.6c-4.73,7.82-9.87,14.93-14.87,22.13c-41.81,60.18-80.19,122.36-109.11,189.92
		c-16.66,38.92-29.78,78.8-29.89,121.84c-0.07,27.63,2.46,54.86,11.4,81.21c5.64,16.6,13.29,32.04,26.28,44.21
		c16.25,15.22,35.84,18.07,55.13,6.98c9.41-5.41,17.94-12.48,26.4-19.38c32.79-26.72,65.04-54.11,98.13-80.46
		c68.65-54.66,140.54-104.81,213.99-152.79c122.66-80.12,251.17-149.03,387.22-203.71c128.08-51.47,260.48-86.58,397.11-105.82
		c9.96-1.4,20.26-0.79,30.38-0.56c5.51,0.12,10.05,2.18,12.23,8.38c1.12,3.18,4.14,6.03,6.94,8.22c6.61,5.18,14.55,7.34,22.78,8
		c22.44,1.79,42.39-9.99,42.37-37.56c-0.02-35.91-19.22-61.38-54.15-71.13c-25.5-7.12-51.45-6.52-77.37-3.49
		c-15.5,1.81-30.86,4.86-46.28,7.39c-19.48,3.2-38.96,6.41-58.44,9.67c-6.64,1.11-13.26,2.37-20.42,3.65
		c3.1-8.91,5.8-17.1,8.78-25.18c3.6-9.75,1.35-18.37-4.84-26.17c-6.78-8.52-15.79-14-26.27-16.29
		c-27.02-5.89-39.58-2.14-53.91,17.64c-1.37,1.89-2.8,3.73-4.11,5.66c-14.63,21.38-25.98,44.53-36.67,68.03
		c-1.34,2.95-3.1,4.45-6.33,5.45c-49.41,15.3-98.76,30.8-148.12,46.25c-1.66,0.52-3.35,0.95-5.11,1.45
		c-3.42-12.26-6.12-24.14-10.09-35.57c-4.07-11.72-8.8-23.3-14.35-34.39c-3.92-7.82-11.39-12.44-20.36-12.48
		c-7.59-0.03-15.31,0.67-22.74,2.17c-23.43,4.72-34.78,21.17-30.92,44.88c1.73,10.65,4.58,21.12,6.99,31.65
		c2.69,11.77,5.46,23.52,8.22,35.39c-11.82,4.81-23.13,9.41-35.03,14.25c0-8.84-0.06-16.98,0.01-25.12
		c0.15-16.98,1.02-33.99,0.39-50.94c-0.65-17.54-7.6-31.87-25.73-37.72c-17.52-5.66-35.54-7.44-53.75-4.17
		c-13.99,2.51-21.4,11.1-23.94,25.22c-3.29,18.27-1.35,36.56-0.67,54.82c0.97,25.94,2.55,51.86,3.97,77.78
		c0.17,3.09-0.89,4.65-3.73,6.05c-36.64,17.96-73.21,36.06-109.76,54.19C558.98-340.66,552.62-337.14,545.18-333.23z M919.94-340.79
		c-0.92,0.19-1.45,0.18-1.86,0.4c-26.18,13.47-52.37,26.92-78.45,40.57c-1.2,0.63-2.22,3.22-2,4.71
		c5.67,38.51,10.95,77.09,17.52,115.45c5.7,33.28,13.42,66.18,25.9,97.72c4.85,12.25,10.3,24.24,20.01,33.64
		c4.5,4.36,9.75,6.95,16.2,6.29c10.17-1.04,19.96-3.82,27.21-11.14c6.84-6.91,13.4-14.45,18.43-22.73
		c12.92-21.3,20.99-44.85,29.06-68.26c30.4-88.22,62.97-175.59,101.39-260.69c0.37-0.82,0.51-1.73,0.79-2.7
		c-0.74-0.04-1.08-0.13-1.37-0.06c-35.12,9.22-69.27,21.3-102.81,35.12c-1.82,0.75-3.45,3.04-4.28,4.99
		c-16.43,38.87-32.72,77.8-49.05,116.72c-0.91,2.16-1.86,4.3-2.79,6.45c-0.37-0.1-0.74-0.2-1.11-0.3
		C928.47-276.65,924.21-308.67,919.94-340.79z M1283.41-443.18c-14.04,1-26.33,2.09-38.64,2.64c-4.56,0.2-7.05,2.11-9.43,5.79
		c-18.89,29.27-35.8,59.64-50.88,91.03c-40.76,84.86-69.3,173.15-75.19,267.84c-0.57,9.24,0.84,17.44,5.7,25.2
		c12.65,20.18,33.69,22,49.45,4.18c8.19-9.26,13.73-20.11,17.51-31.71c7.99-24.5,15.44-49.17,23.17-73.76
		c17.1-54.42,34.5-108.75,57.02-161.24c8.54-19.89,17.54-39.61,30.91-56.87c5.84-7.53,12.4-13.51,23.24-13.15
		c7.94,0.26,11.61-5.33,9.98-13.11c-0.61-2.9-1.52-5.82-2.81-8.48c-6.33-13.11-15.44-24.04-26.64-33.28
		C1292.44-441.73,1287.62-444.13,1283.41-443.18z M538.4-104.74c17.63,25.83,36.41,49.26,61.42,66.97
		c15.63,11.07,32.76,19.09,52.06,19.59c36.56,0.95,65.8-13.88,87.21-43.67c16.33-22.73,25.26-48.61,31.4-75.56
		c9.41-41.32,11.63-83.31,10.82-125.53c-0.02-0.9-0.29-1.8-0.51-3.14c-1.46,0.75-2.51,1.19-3.47,1.79
		c-34.83,21.82-69.68,43.61-104.37,65.64c-1.96,1.24-3.27,4.42-3.75,6.91c-1.83,9.45-2.85,19.07-4.83,28.49
		c-2.33,11.07-4.91,22.16-11.66,31.63c-5.27,7.38-12.28,8.68-19.33,2.99c-4.09-3.3-7.71-7.37-10.87-11.6
		c-3.96-5.29-7.22-11.1-11.09-17.16C587.12-139.86,562.98-122.46,538.4-104.74z"/>
	<path d="M618.18,304.77c7.44-3.92,13.8-7.43,20.31-10.66c36.56-18.13,73.13-36.22,109.76-54.19c2.84-1.39,3.9-2.95,3.73-6.05
		c-1.42-25.92-3-51.84-3.97-77.78c-0.68-18.26-2.62-36.55,0.67-54.82c2.54-14.13,9.96-22.71,23.94-25.22
		c18.21-3.27,36.23-1.49,53.75,4.17c18.13,5.86,25.08,20.18,25.73,37.72c0.63,16.95-0.24,33.96-0.39,50.94
		c-0.07,8.14-0.01,16.28-0.01,25.12c11.91-4.84,23.22-9.44,35.03-14.25c-2.76-11.87-5.53-23.62-8.22-35.39
		c-2.41-10.54-5.26-21-6.99-31.65c-3.86-23.72,7.49-40.16,30.92-44.88c7.44-1.5,15.16-2.2,22.74-2.17
		c8.97,0.04,16.44,4.66,20.36,12.48c5.55,11.09,10.28,22.67,14.35,34.39c3.97,11.43,6.67,23.3,10.09,35.57
		c1.77-0.5,3.45-0.93,5.11-1.45c49.36-15.45,98.71-30.96,148.12-46.25c3.23-1,4.99-2.5,6.33-5.45
		c10.68-23.5,22.03-46.65,36.67-68.03c1.32-1.92,2.74-3.77,4.11-5.66c14.33-19.77,26.89-23.53,53.91-17.64
		c10.47,2.28,19.49,7.76,26.27,16.29c6.2,7.8,8.44,16.42,4.84,26.17c-2.98,8.08-5.69,16.26-8.78,25.18
		c7.16-1.29,13.78-2.54,20.42-3.65c19.47-3.26,38.95-6.47,58.44-9.67c15.42-2.53,30.78-5.58,46.28-7.39
		c25.92-3.03,51.87-3.63,77.37,3.49c34.93,9.75,54.13,35.22,54.15,71.13c0.02,27.57-19.93,39.34-42.37,37.56
		c-8.23-0.66-16.17-2.82-22.78-8c-2.8-2.19-4.96-4.55-6.08-7.73c-2.18-6.19-7.57-8.73-13.08-8.86c-10.13-0.23-20.42-0.84-30.38,0.56
		c-136.62,19.24-269.03,54.36-397.11,105.82C855.37,299.2,726.87,368.11,604.21,448.23c-73.45,47.98-145.34,98.13-213.99,152.79
		c-33.09,26.34-65.34,53.73-98.13,80.46c-8.46,6.9-16.99,13.97-26.4,19.38c-19.29,11.09-38.88,8.24-55.13-6.98
		c-12.99-12.17-20.64-27.61-26.28-44.21c-8.95-26.35-11.48-53.58-11.4-81.21c0.12-43.05,13.23-82.93,29.89-121.84
		c28.92-67.56,67.31-129.74,109.11-189.92c5-7.2,10.15-14.31,14.87-22.13c-76.5,17.14-153.25,32.66-227.48,57.6
		c1.35,5.78,2.9,10.38,3.45,15.1c1.43,12.21-3.98,21.53-15.27,26.4c-14.48,6.24-29.15,4.83-43.35-0.65
		C21.45,324.29,6.9,308.6,3.27,283.77c-3.15-21.56-4.45-42.95,1.02-64.42c1.85-7.25,5.35-11.66,12.5-13.79
		c28.54-8.51,56.68-18.58,85.57-25.6c78.07-18.97,156.36-37.06,234.75-54.68c25.58-5.75,51.68-9.33,77.64-13.22
		c11.37-1.7,22.95-1.36,34.28,1.64c10.07,2.67,18.87,7.56,24.03,16.64c6.89,12.13,13.24,24.64,18.86,37.41
		c5.83,13.24,2.74,26.41-5.29,37.45c-11.82,16.26-24.2,32.28-37.83,47.02c-23.06,24.95-47.7,48.45-70.93,73.25
		c-38.88,41.51-65.65,90.39-84.76,143.65c-4.72,13.16-8.8,26.55-13.14,39.85c-0.45,1.39-0.68,2.85-1.25,5.34
		c8.8-6.3,16.7-12.04,24.69-17.65c71.22-50.07,144.69-96.6,220.29-139.77c3-1.71,3.81-3.4,2.82-6.74
		c-8.91-30.05-15.21-60.68-18.44-91.84c-2.83-27.35-3.53-54.83-1.58-82.3c0.86-12.11,1.79-24.22,3.19-36.27
		c0.32-2.78,2.2-5.85,4.26-7.87c9.12-8.94,21.2-11.32,33.05-14.1c8.75-2.05,17.53-4,26.25-6.18c10.12-2.53,16.54-0.55,20.29,9.13
		c3.98,10.29,7.26,21.18,8.61,32.09c2.52,20.47,3.43,41.15,5.01,61.73c1.79,23.22,3.29,46.47,5.55,69.64
		C613.35,290.94,616.17,297.49,618.18,304.77z"/>
	<path d="M1060,265.51c35-12.51,71-24.51,105.77-35.12c0.29-0.08,0.62,0.02,1.37,0.06c-0.28,0.97-0.42,1.88-0.79,2.7
		c-38.41,85.1-70.99,172.46-101.39,260.69c-8.07,23.42-16.14,46.97-29.06,68.26c-5.02,8.28-11.58,15.82-18.43,22.73
		c-7.25,7.32-17.05,10.1-27.21,11.14c-6.45,0.66-11.7-1.93-16.2-6.29c-9.71-9.4-15.16-21.39-20.01-33.64
		c-12.48-31.54-20.2-64.44-25.9-97.72c-6.57-38.36-11.84-76.94-17.52-115.45c-0.22-1.48,0.8-4.08,2-4.71
		c26.08-13.65,52.27-27.1,78.45-40.57c0.42-0.21,0.95-0.21,1.86-0.4c4.27,32.12,8.53,64.14,12.79,96.16c0.37,0.1,0.74,0.2,1.11,0.3
		c0.93-2.15,1.88-4.29,2.79-6.45"/>
	<path d="M1356.41,194.82c4.59-0.07,9.03,1.46,13.42,5.08c11.19,9.24,20.31,20.17,26.64,33.28c1.29,2.66,2.2,5.58,2.81,8.48
		c1.63,7.79-2.04,13.37-9.98,13.11c-10.84-0.36-17.41,5.62-23.24,13.15c-13.37,17.26-22.37,36.98-30.91,56.87
		c-22.53,52.49-39.92,106.82-57.02,161.24c-7.73,24.59-15.18,49.26-23.17,73.76c-3.78,11.6-9.32,22.45-17.51,31.71
		c-15.76,17.81-36.8,16-49.45-4.18c-4.86-7.76-6.27-15.96-5.7-25.2c5.88-94.7,34.42-182.98,75.19-267.84
		c15.08-31.38,31.99-61.76,50.88-91.03c2.38-3.68,4.89-5.25,9.43-5.79C1330,196,1342.33,195.04,1356.41,194.82z"/>
	<path d="M745.95,439.35c34.69-22.03,69.55-43.81,104.37-65.64c0.95-0.6,2-1.04,3.47-1.79c0.23,1.34,0.49,2.24,0.51,3.14
		c0.81,42.22-1.41,84.21-10.82,125.53c-6.14,26.94-15.07,52.83-31.4,75.56c-21.41,29.79-50.65,44.62-87.21,43.67
		c-19.3-0.5-36.44-8.53-52.06-19.59c-25.01-17.71-43.79-41.14-61.42-66.97c24.58-17.72,48.72-35.12,73.03-52.65
		c3.87,6.06,7.13,11.87,11.09,17.16c3.16,4.23,6.77,8.3,10.87,11.6c7.05,5.69,14.07,4.39,19.33-2.99
		c6.75-9.46,9.33-20.56,11.66-31.63"/>
</g>
</svg>
